<svg width="132" height="46" viewBox="0 0 132 46" fill="none" xmlns="http://www.w3.org/2000/svg">
<path d="M129.481 4.80078C129.054 4.80078 128.652 4.91122 128.301 5.10535C128.09 5.22174 127.898 5.36848 127.73 5.53944C127.281 5.99566 127.004 6.62539 127.004 7.31977C127.004 7.72577 127.099 8.10503 127.265 8.43999C127.29 8.48993 127.317 8.53858 127.345 8.58648C127.41 8.69795 127.481 8.80505 127.562 8.90418C127.663 9.02595 127.774 9.13796 127.897 9.23809C128.323 9.58876 128.873 9.79704 129.481 9.79704C130.87 9.79704 132 8.68558 132 7.32002C132 5.93076 130.87 4.80078 129.481 4.80078Z" fill="#FFD124"/>
<path d="M60.886 7.32048C60.886 5.88515 62.0348 4.71757 63.4471 4.71757C64.8821 4.71757 66.05 5.88515 66.05 7.32048C66.05 8.73239 64.8821 9.88145 63.4471 9.88145C62.0112 9.88145 60.886 8.7566 60.886 7.32048ZM46.5229 31.7045C45.799 32.7462 43.0572 35.2843 41.2437 35.2843C39.4491 35.2843 38.4606 34.0873 38.4606 31.9142C38.4606 31.3327 38.4839 30.6123 38.5261 29.8593C36.7526 32.0714 33.2044 35.3258 30.5599 35.3258C26.698 35.3258 24.9695 32.7707 24.9695 30.2383C24.9695 26.9755 28.3777 24.129 35.6958 21.281L38.9116 20.041C38.6971 14.8862 37.253 13.8744 34.8336 13.8744C32.1217 13.8744 31.1336 15.7834 30.3396 17.3174C30.1403 17.7031 29.9521 18.0666 29.7546 18.3539C29.2693 19.0545 28.7322 19.2792 27.5435 19.2792C26.2856 19.2792 25.4728 18.7458 25.4728 17.9206C25.4728 17.3177 25.9059 16.3962 27.1213 15.6187C28.7845 14.5376 32.4225 12.7073 35.5044 12.7073C40.3251 12.7073 42.98 15.5556 42.98 20.7277C42.98 22.3296 42.873 24.5273 42.7788 26.4662C42.707 27.9358 42.645 29.2048 42.645 29.903C42.645 32.0632 42.8922 33.0693 43.4228 33.0693C43.8287 33.0693 44.7242 32.088 45.3392 30.97C45.5527 30.6273 45.9621 30.5287 46.2943 30.7357H46.2946C46.636 30.9491 46.7342 31.3657 46.5229 31.7045ZM38.8668 21.2002L36.0284 22.4318C29.9544 24.9936 28.6895 26.164 28.6895 29.0231C28.6895 31.0894 30.8164 32.692 32.6486 32.692C33.5784 32.692 34.924 31.9045 36.3511 30.5318C37.5197 29.4072 38.5233 28.0655 38.7015 27.4111L38.6842 27.2566C38.7472 26.5082 38.8668 24.5301 38.8668 21.482V21.2002ZM21.1022 13.3891V17.0393V18.529V31.9618C21.1022 39.7253 14.5099 45.3452 10.0824 45.3452C6.52326 45.3452 3.83898 43.8976 3.83898 42.6037C3.83898 41.3665 4.94348 40.2814 6.20297 40.2814C7.01938 40.2814 7.89835 40.7547 8.91711 41.3032C10.1086 41.944 11.4559 42.6699 12.8622 42.6699C14.1732 42.6699 17.2403 42.6699 17.2403 34.3503V33.4434C15.4381 34.4312 13.5267 35.0333 11.3025 35.0333C4.64533 35.0327 0 30.6626 0 24.4052C0 17.9863 5.27689 12.9586 12.0108 12.9586C14.2839 12.9586 16.3188 13.4874 18.0114 14.4336C18.0852 14.3249 18.1617 14.2209 18.2258 14.1264C19.0626 12.8911 19.9395 12.7014 20.4315 12.7014C21.078 12.7011 21.1022 13.2189 21.1022 13.3891ZM17.2403 18.0421C15.953 15.7621 13.9886 14.1406 11.4765 14.1406C8.27938 14.1406 4.47079 15.8007 4.47079 23.7088C4.47079 28.6739 7.30439 33.8093 12.0484 33.8093C14.3227 33.8093 16.2107 32.851 17.2405 31.0665V29.4461V18.0421H17.2403ZM125.705 23.7021C125.705 29.1801 121.034 35.2839 114.333 35.2839C107.982 35.2839 103.547 30.8142 103.547 24.4143C103.547 17.8493 108.579 12.7071 115.004 12.7071C121.304 12.7073 125.705 17.2286 125.705 23.7021ZM121.521 24.3726C121.521 19.3439 118.837 13.9164 114.5 13.9164C111.451 13.9164 107.815 15.6143 107.815 23.7021C107.815 28.7803 110.52 34.0329 115.045 34.0329C119.161 34.0329 121.521 30.5117 121.521 24.3726ZM78.7823 33.7104C76.7707 33.7104 76.7134 33.7104 76.7134 29.4842V0.70094C76.7134 0.55187 76.6281 0.339724 76.3214 0.175208C76.122 0.068105 75.6147 -0.0969267 75.3593 0.0735115C74.1174 0.767364 72.5546 1.52893 70.4233 1.91332C70.2369 1.93649 70.0725 2.02222 69.9655 2.15456C69.8666 2.27711 69.819 2.43184 69.8376 2.57937C69.8571 2.73822 69.9463 2.87853 70.0836 2.96427C70.2057 3.04048 70.3556 3.06803 70.5339 3.04588C71.403 2.88935 72.0384 2.80413 72.3259 3.04511C72.6641 3.3278 72.8518 4.19286 72.8518 5.93767V29.4842C72.8518 33.7104 72.666 33.7104 71.3054 33.7104C70.8935 33.7104 70.6497 34.0045 70.6497 34.2813C70.6497 34.5578 70.861 34.8522 71.2729 34.8522C71.9726 34.8522 72.9639 34.8248 73.8434 34.8009L73.8787 34.7999C74.4669 34.7836 75.0215 34.7681 75.2853 34.7681C75.5417 34.7681 75.9696 34.7823 76.4842 34.7996C77.1817 34.8232 78.0501 34.8522 78.7618 34.8522C79.1734 34.8522 79.4058 34.5578 79.4058 34.2813C79.4055 34.0045 79.1939 33.7104 78.7823 33.7104ZM55.9072 33.7104C53.8959 33.7104 53.7996 33.7104 53.7996 29.4842V0.70094C53.7996 0.55187 53.753 0.339724 53.4463 0.175208C53.2466 0.068105 52.7585 -0.0966694 52.5035 0.0737691C51.2615 0.767622 49.7088 1.52919 47.5769 1.91357C47.3905 1.93675 47.2308 2.02248 47.1241 2.15481C47.0249 2.27737 46.9799 2.4321 46.9987 2.57962C47.0183 2.73848 47.1093 2.87879 47.2459 2.96453C47.3675 3.04048 47.5174 3.06828 47.6969 3.04614C48.5666 2.88909 49.1624 2.80439 49.4505 3.04537C49.7887 3.32806 49.938 4.19311 49.938 5.93793V29.4844C49.938 33.7107 49.7913 33.7107 48.4306 33.7107C48.0187 33.7107 47.7942 34.0045 47.7942 34.2813C47.7942 34.5581 48.0149 34.8525 48.4268 34.8525C49.1265 34.8525 50.1228 34.8251 51.0023 34.8012L51.0401 34.8003C51.6281 34.7839 52.1838 34.7685 52.4477 34.7685C52.7044 34.7685 53.1326 34.7826 53.6475 34.7999C54.345 34.8232 55.2132 34.8525 55.9251 34.8525C56.3367 34.8525 56.5499 34.5581 56.5499 34.2813C56.5496 34.0045 56.3188 33.7104 55.9072 33.7104ZM101.909 28.1093C100.124 32.7689 95.8743 35.2839 91.3177 35.2839C84.2256 35.2839 80.9976 30.4213 80.9976 25.3414C80.9976 18.9157 86.4078 12.7071 93.6366 12.7071C98.3648 12.7071 100.956 15.4423 100.956 18.3513C100.956 20.7393 99.8193 21.4774 98.3648 21.4774L84.6803 21.5207C84.635 21.9983 84.5893 22.5194 84.5893 23.0402C84.5893 28.9451 88.09 32.3749 92.8639 32.3749C96.5419 32.3749 98.7509 31.0964 101.092 27.6953C101.194 27.5468 101.401 27.5009 101.559 27.5949L101.768 27.7195C101.904 27.8014 101.965 27.9649 101.909 28.1093ZM84.9073 20.3922C89.3175 20.3487 92.1361 20.3055 94.5004 20.0882C95.2731 20.0014 95.9552 19.8276 96.2736 19.5238C96.5916 19.2198 96.7733 18.8292 96.7733 18.1346C96.7733 16.2242 95.4548 14.5744 92.1361 14.5744C88.5444 14.5741 85.8168 16.8321 84.9073 20.3922ZM67.7473 33.7104C65.7556 33.7104 65.6429 33.4585 65.6429 29.8613V13.3955C65.6429 13.2462 65.5516 13.0335 65.2433 12.869C65.0846 12.7843 64.5511 12.5879 64.2488 12.7882C62.715 13.8499 61.2519 14.6527 59.1298 15.1197C58.9743 15.1583 58.8433 15.2361 58.7573 15.344C58.6525 15.4748 58.6134 15.6405 58.6531 15.7992C58.6877 15.9366 58.78 16.0595 58.9079 16.1359C59.0115 16.1982 59.1862 16.259 59.4236 16.199C60.3337 15.9992 60.8555 15.9263 61.1285 16.146C61.4425 16.398 61.5237 17.1781 61.5237 18.6747V29.8616C61.5237 33.4588 61.4399 33.7107 59.4085 33.7107C58.997 33.7107 58.8039 34.0045 58.8039 34.2813C58.8039 34.5581 59.0407 34.8525 59.4523 34.8525C60.1517 34.8525 61.2227 34.8255 62.1614 34.8012L62.207 34.8003C62.8362 34.7839 63.432 34.7685 63.6968 34.7685C63.9613 34.7685 64.5177 34.7839 65.1063 34.8003L65.1453 34.8012C66.0245 34.8251 67.0212 34.8525 67.7202 34.8525C68.1321 34.8525 68.3677 34.5581 68.3677 34.2813C68.3674 34.0045 68.1592 33.7104 67.7473 33.7104Z" fill="#0F152F"/>
</svg>
