<svg width="190" height="27" viewBox="0 0 190 27" fill="none" xmlns="http://www.w3.org/2000/svg">
<path d="M46.0677 18.7376H39.1456V4.53537C39.1456 4.41602 39.0262 4.41602 39.0262 4.41602H36.0425C35.9232 4.41602 35.8038 4.41602 35.8038 4.53537V21.7213C35.8038 21.8405 35.9232 21.8405 36.0425 21.8405H46.0677C46.1869 21.8405 46.1869 21.8405 46.1869 21.7213V18.9763C46.1869 18.8568 46.1869 18.7376 46.0677 18.7376Z" fill="black"/>
<path d="M53.4671 7.51903H60.2697C60.2697 7.51903 60.3892 7.39967 60.3892 7.28034V4.53537C60.3892 4.41602 60.2697 4.41602 60.2697 4.41602H50.3641C50.2447 4.41602 50.2447 4.41602 50.2447 4.53537V21.7213C50.2447 21.8405 50.2447 21.8405 50.3641 21.8405H60.2697C60.2697 21.8405 60.3892 21.8405 60.3892 21.7213V18.9763C60.3892 18.8568 60.2697 18.7376 60.2697 18.7376H53.4671V14.4411H59.5537C59.5537 14.4411 59.6732 14.4411 59.6732 14.3218V11.6961C59.6732 11.5768 59.5537 11.4575 59.5537 11.4575H53.4671V7.51903Z" fill="black"/>
<path d="M97.9834 21.7213L91.4192 4.53537C91.4192 4.41602 91.2999 4.41602 91.2999 4.41602H88.0776C87.9581 4.41602 87.9581 4.41602 87.9581 4.53537L81.3942 21.7213C81.3942 21.7213 81.3942 21.7213 81.3942 21.8405H81.5136H84.6165C84.6165 21.8405 84.7358 21.8405 84.7358 21.7213L86.2874 17.5441H92.8514L94.5223 21.7213C94.5223 21.8405 94.5223 21.8405 94.6416 21.8405H97.7445H97.8639C97.8639 21.7213 97.9834 21.7213 97.9834 21.7213ZM91.8965 14.5605H87.4808L89.629 8.59313L91.8965 14.5605Z" fill="black"/>
<path d="M111.469 18.7376H104.547V4.53537C104.547 4.41602 104.428 4.41602 104.309 4.41602H101.444C101.325 4.41602 101.325 4.41602 101.325 4.53537V21.7213C101.325 21.8405 101.325 21.8405 101.444 21.8405H111.469C111.589 21.8405 111.589 21.8405 111.589 21.7213V18.9763C111.589 18.8568 111.589 18.8568 111.589 18.8568C111.589 18.7376 111.469 18.7376 111.469 18.7376Z" fill="black"/>
<path d="M128.417 18.7368H120.301L128.417 4.65395C128.417 4.53459 128.417 4.53459 128.417 4.41525C128.417 4.41525 128.417 4.2959 128.297 4.2959H115.766C115.766 4.2959 115.646 4.41525 115.646 4.53459V7.27956C115.646 7.39891 115.766 7.51825 115.766 7.51825H122.927L114.93 21.7204C114.811 21.7204 114.811 21.7204 114.93 21.8399C114.93 21.8399 114.93 21.9591 115.05 21.9591H128.417C128.417 21.9591 128.536 21.8399 128.536 21.7204V18.9754C128.536 18.8562 128.417 18.7368 128.417 18.7368Z" fill="black"/>
<path d="M138.919 4.05762C134.026 4.05762 130.326 7.99604 130.326 13.1279C130.326 18.2597 134.026 22.1983 138.919 22.1983C143.932 22.1983 147.631 18.2597 147.631 13.1279C147.631 7.99604 143.932 4.05762 138.919 4.05762ZM144.289 13.1279C144.289 17.0664 141.545 19.0952 138.919 19.0952C136.293 19.0952 133.668 17.0664 133.668 13.1279C133.668 9.1895 136.293 7.16063 138.919 7.16063C141.664 7.16063 144.289 9.1895 144.289 13.1279Z" fill="black"/>
<path d="M159.089 4.05762C154.195 4.05762 150.496 7.99604 150.496 13.1279C150.496 18.2597 154.195 22.1983 159.089 22.1983C164.101 22.1983 167.801 18.2597 167.801 13.1279C167.801 7.99604 164.101 4.05762 159.089 4.05762ZM158.969 7.16063C161.595 7.16063 164.34 9.1895 164.34 13.1279C164.34 17.0664 161.714 19.0952 158.969 19.0952C156.344 19.0952 153.718 17.0664 153.718 13.1279C153.718 9.1895 156.344 7.16063 158.969 7.16063Z" fill="black"/>
<path d="M187.611 4.53537C187.611 4.41602 187.493 4.41602 187.374 4.41602H184.032C183.912 4.41602 183.912 4.41602 183.912 4.53537L180.093 16.47L176.155 4.53537C176.155 4.41602 176.036 4.41602 175.916 4.41602H172.575C172.455 4.41602 172.455 4.41602 172.455 4.53537L169.83 21.7213L169.949 21.8405C169.949 21.8405 169.949 21.8405 170.068 21.8405H172.933C172.933 21.8405 173.052 21.8405 173.052 21.7213L174.723 9.90595L178.542 21.8405L178.661 21.96H181.168C181.287 21.96 181.287 21.8405 181.406 21.8405L185.225 9.90595L186.776 21.7213C186.776 21.8405 186.897 21.8405 187.015 21.8405H189.88H190V21.7213L187.611 4.53537Z" fill="black"/>
<path d="M77.9331 12.7701H75.1881C75.0688 12.7701 74.9494 12.8895 74.9494 13.0088V18.4987C75.0688 18.4987 75.0688 18.4987 74.9494 18.4987C74.2334 18.9761 73.2785 19.0955 72.4432 19.0955C69.3401 19.0955 67.0726 16.5892 67.0726 13.1281C67.0726 9.78644 69.4595 7.28018 72.6819 7.28018C74.2334 7.28018 75.7849 7.75757 77.0976 8.59298L77.3363 8.83167C77.4557 8.83167 77.4558 8.83167 77.575 8.83167C77.575 8.71233 77.575 8.71233 77.575 8.59298V5.48998C77.575 5.37063 77.575 5.37063 77.575 5.37063L77.4557 5.25129C75.9043 4.41586 74.2334 3.93848 72.4432 3.93848C67.55 3.93848 63.8503 7.8769 63.8503 13.1281C63.8503 18.2601 67.55 22.1985 72.4432 22.1985C74.3526 22.1985 76.3816 21.7211 78.0525 20.647V20.5276C78.1718 20.5276 78.1718 20.5276 78.1718 20.4083V13.0088C78.1718 12.8895 78.1718 12.8895 78.0525 12.7701H77.9331Z" fill="black"/>
<path opacity="0.8" d="M22.5564 0H13.1281L9.66705 8.71227H16.2311C16.8278 8.71227 17.3052 8.95096 17.7826 9.42834C18.1406 9.78639 18.3793 10.3831 18.3793 10.8605C18.3793 11.2185 18.2599 11.4572 18.1406 11.6959L22.6758 0.358038C22.7951 0.238692 22.7951 0.119346 22.6758 0.119346C22.6758 0 22.5564 0 22.5564 0Z" fill="#0066FF"/>
<path d="M25.3015 17.5435H16.2311C16.1118 17.5435 16.1118 17.4242 15.9924 17.4242C15.9924 17.3048 15.9924 17.3048 15.9924 17.1855L18.1407 11.8149V11.6956C18.2599 11.4569 18.3794 11.2182 18.3794 10.8602C18.3794 9.6667 17.4246 8.71191 16.2311 8.71191H9.66708L2.745 25.8978C2.745 26.0171 2.745 26.1365 2.86433 26.1365C2.86433 26.2558 2.98369 26.2558 2.98369 26.2558H21.9597C22.0791 26.2558 22.0791 26.2558 22.1985 26.1365L25.4207 17.7822C25.5401 17.7822 25.5401 17.6629 25.4207 17.5435H25.3015Z" fill="#0066FF"/>
<path opacity="0.4" d="M3.58038 0C3.46104 0 3.34169 0 3.34169 0.119346L0 8.47357C0 8.47357 0 8.59293 0 8.71227C0.119346 8.71227 0.119346 8.71227 0.238692 8.71227H9.66705L13.1281 0H3.58038Z" fill="#0066FF"/>
</svg>
