<svg width="188" height="22" viewBox="0 0 188 22" fill="none" xmlns="http://www.w3.org/2000/svg">
<path fill-rule="evenodd" clip-rule="evenodd" d="M0.00203515 10.5493V10.5116C-0.0204722 9.50366 0.160962 8.50155 0.535444 7.56546C0.909923 6.62937 1.46973 5.77863 2.18123 5.0643C2.89274 4.34998 3.74127 3.78682 4.67587 3.40865C5.61047 3.03048 6.61187 2.84508 7.6199 2.86362C8.69182 2.82416 9.76016 3.00884 10.7566 3.40586C11.7531 3.80289 12.6557 4.40351 13.4068 5.16932L11.7415 7.08321C11.206 6.51932 10.564 6.06717 9.85268 5.7529C9.14137 5.43861 8.3748 5.26844 7.5973 5.2522C6.93172 5.26453 6.27538 5.41035 5.6672 5.68104C5.05901 5.95174 4.51137 6.34177 4.05673 6.82804C3.60209 7.3143 3.2497 7.88689 3.02045 8.51187C2.79121 9.13685 2.68977 9.80149 2.72217 10.4664V10.5116C2.72217 13.3975 4.77168 15.7408 7.60483 15.7408C8.40493 15.7357 9.19522 15.5642 9.92551 15.2373C10.6558 14.9104 11.3102 14.4353 11.847 13.8421L13.5123 15.53C12.7707 16.3838 11.8485 17.0622 10.8124 17.5157C9.77639 17.9692 8.6524 18.1866 7.52195 18.152C6.52395 18.1646 5.53369 17.9757 4.61027 17.597C3.68685 17.2183 2.84921 16.6573 2.14733 15.9478C1.44547 15.2381 0.893778 14.3944 0.52519 13.4669C0.156603 12.5394 -0.0213237 11.5471 0.00203515 10.5493Z" fill="#323E48"/>
<path fill-rule="evenodd" clip-rule="evenodd" d="M62.8891 12.0782L60.3347 6.17081L57.803 12.0782H62.8891ZM59.1744 3.06641H61.5855L68.0807 17.948H65.3379L63.8385 14.3764H56.8535L55.3315 17.948H52.6716L59.1744 3.06641Z" fill="#323E48"/>
<path fill-rule="evenodd" clip-rule="evenodd" d="M81.1691 3.1123H83.7687V15.53H91.5373V17.8959H81.1691V3.11984" fill="#323E48"/>
<path fill-rule="evenodd" clip-rule="evenodd" d="M104.791 3.1123H115.792V5.48581H107.391V9.51704H114.85V11.883H107.391V17.8959H104.799V3.11984" fill="#323E48"/>
<path fill-rule="evenodd" clip-rule="evenodd" d="M129.348 17.8952H131.94V3.11914H129.348V17.8952Z" fill="#323E48"/>
<path fill-rule="evenodd" clip-rule="evenodd" d="M152.842 10.4434C154.696 10.4434 155.878 9.47135 155.878 7.97188V7.93421C155.878 6.35186 154.741 5.48534 152.819 5.48534H149.044V10.4434H152.842ZM146.444 3.11935H153.031C154.591 3.03355 156.122 3.56389 157.295 4.59621C158.111 5.45405 158.551 6.60034 158.524 7.7835V7.82871C158.554 8.86649 158.22 9.88221 157.579 10.6997C156.94 11.5172 156.034 12.085 155.02 12.3045L159.005 17.8954H155.923L152.292 12.7415H149.044V17.8954H146.444V3.11935Z" fill="#323E48"/>
<path fill-rule="evenodd" clip-rule="evenodd" d="M172.259 3.1123H183.215V5.44814H174.859V9.29098H182.274V11.6118H174.859V15.5826H183.329V17.9035H172.259V3.11984" fill="#323E48"/>
<path fill-rule="evenodd" clip-rule="evenodd" d="M186.569 16.1704H186.185V16.6752H186.576C186.612 16.6817 186.65 16.6802 186.687 16.6709C186.723 16.6615 186.757 16.6444 186.788 16.6209C186.817 16.5974 186.84 16.5678 186.858 16.5344C186.874 16.5008 186.884 16.4641 186.885 16.4266C186.885 16.388 186.878 16.3498 186.862 16.3146C186.846 16.2796 186.823 16.2485 186.792 16.2238C186.763 16.1993 186.728 16.1817 186.69 16.1723C186.653 16.1631 186.614 16.1624 186.576 16.1704H186.569ZM186.833 16.8863L187.255 17.4815H186.9L186.516 16.9315H186.185V17.4815H185.883V15.8991H186.583C186.658 15.8873 186.734 15.8914 186.805 15.9111C186.878 15.9309 186.945 15.9658 187.004 16.0135C187.06 16.0614 187.107 16.1208 187.141 16.1882C187.173 16.2555 187.192 16.3291 187.193 16.4039C187.201 16.5141 187.167 16.623 187.101 16.7113C187.036 16.7996 186.939 16.8614 186.833 16.8863ZM186.493 15.3793C186.224 15.3777 185.961 15.4561 185.738 15.6042C185.513 15.7523 185.338 15.9636 185.235 16.2113C185.131 16.459 185.103 16.7319 185.154 16.9954C185.206 17.2591 185.334 17.5014 185.524 17.6918C185.713 17.8823 185.954 18.0123 186.218 18.0651C186.481 18.1181 186.754 18.0917 187.004 17.9893C187.252 17.8868 187.463 17.713 187.612 17.4899C187.762 17.2666 187.841 17.0042 187.841 16.7355C187.844 16.5575 187.811 16.3809 187.743 16.2158C187.676 16.0509 187.577 15.9009 187.452 15.7746C187.326 15.6484 187.177 15.5484 187.012 15.4806C186.847 15.4127 186.671 15.3783 186.493 15.3793ZM186.493 18.2425C186.294 18.2435 186.099 18.2052 185.915 18.1298C185.732 18.0545 185.566 17.9434 185.426 17.8033C185.286 17.6632 185.175 17.4967 185.099 17.3134C185.023 17.1301 184.985 16.9337 184.987 16.7355C184.987 16.4375 185.074 16.1461 185.241 15.8983C185.405 15.6505 185.64 15.4574 185.916 15.3433C186.192 15.2291 186.494 15.1994 186.788 15.2574C187.079 15.3157 187.348 15.4591 187.558 15.6699C187.77 15.8807 187.913 16.1493 187.971 16.4416C188.029 16.7339 187.999 17.0369 187.885 17.3123C187.771 17.5876 187.578 17.823 187.33 17.9885C187.082 18.1542 186.792 18.2425 186.493 18.2425Z" fill="#323E48"/>
<path fill-rule="evenodd" clip-rule="evenodd" d="M36.5848 0L29.0649 4.34768V13.028L36.5848 17.3757L44.1046 13.028V4.34768L36.5848 0ZM31.5063 11.6265V5.7492L36.5848 2.81055L41.671 5.7492V11.6189L36.5848 14.5576L31.5063 11.6189V11.6265Z" fill="#323E48"/>
<path fill-rule="evenodd" clip-rule="evenodd" d="M22.758 7.98735V16.6676L30.2855 21.0154L37.8054 16.6676V7.98735L30.2931 3.63965L22.758 7.98735ZM25.1994 15.2585V9.38885L30.2855 6.45774L35.3641 9.39639V15.2585L30.2855 18.1973L25.1994 15.2585Z" fill="#E25928"/>
</svg>
