<svg width="182" height="35" viewBox="0 0 182 35" fill="none" xmlns="http://www.w3.org/2000/svg">
<path d="M182 34.0478C182 34.4116 181.697 34.7237 181.343 34.7237H148.928C148.573 34.7237 148.27 34.4116 148.27 34.0478V0.675759C148.27 0.311888 148.573 0 148.928 0H181.343C181.697 0 182 0.311888 182 0.675759V34.0478Z" fill="white"/>
<path d="M33.7806 34.0478C33.7806 34.4116 33.477 34.7237 33.123 34.7237H0.657403C0.303417 34.7237 0 34.4116 0 34.0478V0.675759C0 0.311888 0.303417 0 0.657403 0H33.0726C33.4263 0 33.7299 0.311888 33.7299 0.675759V34.0478H33.7806Z" fill="white"/>
<path d="M107.916 1.03963C107.916 0.467834 107.461 0 106.904 0H75.1466C74.5903 0 74.135 0.467834 74.135 1.03963V33.6839C74.135 34.2559 74.5903 34.7237 75.1466 34.7237H98.8132L107.916 25.3668V1.03963Z" fill="white"/>
<path d="M70.8474 34.0478C70.8474 34.4116 70.544 34.7237 70.19 34.7237H37.7244C37.3704 34.7237 37.067 34.4116 37.067 34.0478V0.675759C37.067 0.311888 37.3704 0 37.7244 0H70.1394C70.4936 0 70.797 0.311888 70.797 0.675759V34.0478H70.8474Z" fill="white"/>
<path d="M144.932 34.0478C144.932 34.4116 144.629 34.7237 144.274 34.7237H111.859C111.505 34.7237 111.202 34.4116 111.202 34.0478V0.675759C111.202 0.311888 111.505 0 111.859 0H144.274C144.629 0 144.932 0.311888 144.932 0.675759V34.0478Z" fill="white"/>
<path fill-rule="evenodd" clip-rule="evenodd" d="M106.904 0C107.461 0 107.916 0.467834 107.916 1.03963V25.3668L98.8132 34.7237H75.1466C74.5903 34.7237 74.135 34.2559 74.135 33.6839V1.03963C74.135 0.467834 74.5903 0 75.1466 0H106.904ZM92.997 12.0599C92.6936 11.9559 91.9857 11.852 91.48 11.852V11.9039H86.2714C86.0689 11.9039 85.8668 12.1119 85.8668 12.3198V22.7161C85.8668 22.924 86.0689 23.1319 86.2714 23.1319H88.7998C89.0021 23.1319 89.2044 22.924 89.2044 22.7161V20.065H90.6203L92.3903 22.924C92.4913 23.08 92.5926 23.1319 92.7443 23.1319H96.0818C96.2335 23.1319 96.3346 22.924 96.2335 22.82C95.6772 21.9884 94.1602 19.5452 94.1096 19.4413C94.1723 19.393 94.2299 19.3448 94.2859 19.298C94.4105 19.1938 94.5263 19.0972 94.6659 19.0255C96.3346 17.8818 96.5371 15.5427 95.5762 13.9313C94.9692 12.9436 94.1096 12.3198 92.997 12.0599ZM91.48 17.258H89.2044V14.6589H91.379C91.6317 14.6589 91.8844 14.711 92.1373 14.8669C92.542 15.1268 92.7443 15.3867 92.7443 15.9585C92.7443 16.4783 92.542 16.8941 92.0869 17.1021C91.8846 17.2061 91.6823 17.258 91.48 17.258Z" fill="#FF0065"/>
<path fill-rule="evenodd" clip-rule="evenodd" d="M33.123 34.7237C33.477 34.7237 33.7806 34.4116 33.7806 34.0478H33.7299V0.675759C33.7299 0.311888 33.4263 0 33.0726 0H0.657403C0.303417 0 0 0.311888 0 0.675759V34.0478C0 34.4116 0.303417 34.7237 0.657403 34.7237H33.123ZM23.5145 22.6641V12.2158C23.5145 12.0079 23.3122 11.852 23.1605 11.852H20.7837C20.6825 11.852 20.5308 11.9039 20.4803 12.0079L16.8394 17.1021L13.2488 12.0079C13.1478 11.9039 13.0466 11.852 12.9454 11.852H10.6192C10.417 11.852 10.2653 12.0079 10.2653 12.2158V22.7161C10.2653 22.924 10.417 23.08 10.6192 23.08H13.2488C13.4512 23.08 13.6029 22.924 13.6029 22.7161V17.258C13.6917 17.4103 14.7521 18.9356 15.656 20.236C16.2954 21.1558 16.8566 21.9631 16.9404 22.0923C17.6963 20.9453 18.4778 19.851 19.2485 18.7719C19.5605 18.3349 19.8708 17.9005 20.1769 17.466V22.6641C20.1769 22.872 20.3286 23.028 20.5308 23.028H23.1605C23.3627 23.028 23.5145 22.872 23.5145 22.6641Z" fill="#FF0065"/>
<path fill-rule="evenodd" clip-rule="evenodd" d="M70.19 34.7237C70.544 34.7237 70.8474 34.4116 70.8474 34.0478H70.797V0.675759C70.797 0.311888 70.4936 0 70.1394 0H37.7244C37.3704 0 37.067 0.311888 37.067 0.675759V34.0478C37.067 34.4116 37.3704 34.7237 37.7244 34.7237H70.19ZM59.7223 12.2678C59.7223 12.0079 59.5202 11.852 59.3179 11.852V11.9039H56.6883C56.4354 11.9039 56.2837 12.1119 56.2837 12.3198V17.8818C56.2837 18.1937 56.2837 18.5056 56.1824 18.8175C55.9804 19.7011 55.4241 20.221 54.5644 20.3769C53.9068 20.5328 53.3001 20.4809 52.6932 20.169C52.2382 19.9091 51.9852 19.5452 51.7829 19.0774C51.5808 18.5575 51.5302 17.9338 51.5302 17.362V12.3198C51.5302 12.0599 51.3279 11.9039 51.1256 11.9039H48.6476C48.4453 11.9039 48.243 12.1119 48.243 12.3198V17.4139V17.4139C48.243 17.9338 48.243 18.5056 48.3443 19.0255C48.496 20.065 48.9006 20.9487 49.5579 21.6764C50.5693 22.7681 51.8842 23.2359 53.3001 23.3399C53.9575 23.3919 54.6654 23.3398 55.323 23.2359C56.4354 23.028 57.4467 22.6122 58.256 21.7805C59.2673 20.7928 59.6719 19.4933 59.7223 18.1417V12.2678Z" fill="#FF0065"/>
<path fill-rule="evenodd" clip-rule="evenodd" d="M144.274 34.7237C144.629 34.7237 144.932 34.4116 144.932 34.0478V0.675759C144.932 0.311888 144.629 0 144.274 0H111.859C111.505 0 111.202 0.311888 111.202 0.675759V34.0478C111.202 34.4116 111.505 34.7237 111.859 34.7237H144.274ZM134.515 22.7161L129.661 11.852H126.626L121.721 22.7161C121.62 22.872 121.721 23.08 121.923 23.08H124.857C125.059 23.08 125.21 22.976 125.312 22.7681L125.767 21.6245H130.47L130.925 22.7681C131.026 22.976 131.178 23.08 131.38 23.08H134.312C134.465 23.08 134.566 22.872 134.515 22.7161ZM128.042 15.8025L129.206 18.9214H126.879L128.042 15.8025Z" fill="#FF0065"/>
<path fill-rule="evenodd" clip-rule="evenodd" d="M181.343 34.7237C181.697 34.7237 182 34.4116 182 34.0478V0.675759C182 0.311888 181.697 0 181.343 0H148.928C148.573 0 148.27 0.311888 148.27 0.675759V34.0478C148.27 34.4116 148.573 34.7237 148.928 34.7237H181.343ZM164.25 20.169V12.2678C164.25 12.0079 164.098 11.852 163.795 11.852H161.317C161.115 11.852 160.913 12.0599 160.913 12.2678V22.6641C160.913 22.872 161.115 23.08 161.317 23.08H168.851C169.054 23.08 169.256 22.872 169.256 22.6641V20.5849C169.256 20.3769 169.054 20.169 168.851 20.169H164.25Z" fill="#FF0065"/>
<path d="M90.3172 34.7225L99.0657 25.6777H107.612L98.813 34.7225H90.3172Z" fill="#B0044B"/>
<path d="M107.916 25.3691H99.8248C99.2685 25.3691 98.8132 25.8369 98.8132 26.4089V34.726L107.916 25.3691Z" fill="#FF5BA0"/>
</svg>
