<svg id="visual" viewBox="0 0 1900 1080" width="1900" height="1080" xmlns="http://www.w3.org/2000/svg" xmlns:xlink="http://www.w3.org/1999/xlink" version="1.1"><rect x="0" y="0" width="1900" height="1080" fill="#001220"></rect><path d="M1417 1080L1410.7 1035C1404.3 990 1391.7 900 1411 810C1430.3 720 1481.7 630 1507.2 540C1532.7 450 1532.3 360 1499.2 270C1466 180 1400 90 1367 45L1334 0L1900 0L1900 45C1900 90 1900 180 1900 270C1900 360 1900 450 1900 540C1900 630 1900 720 1900 810C1900 900 1900 990 1900 1035L1900 1080Z" fill="#e67d0e"></path><path d="M1387 1080L1422.3 1035C1457.7 990 1528.3 900 1568 810C1607.7 720 1616.3 630 1597.8 540C1579.3 450 1533.7 360 1493.3 270C1453 180 1418 90 1400.5 45L1383 0L1900 0L1900 45C1900 90 1900 180 1900 270C1900 360 1900 450 1900 540C1900 630 1900 720 1900 810C1900 900 1900 990 1900 1035L1900 1080Z" fill="#e76a06"></path><path d="M1703 1080L1674.2 1035C1645.3 990 1587.7 900 1557.3 810C1527 720 1524 630 1525 540C1526 450 1531 360 1559.2 270C1587.3 180 1638.7 90 1664.3 45L1690 0L1900 0L1900 45C1900 90 1900 180 1900 270C1900 360 1900 450 1900 540C1900 630 1900 720 1900 810C1900 900 1900 990 1900 1035L1900 1080Z" fill="#e75506"></path><path d="M1781 1080L1776.3 1035C1771.7 990 1762.3 900 1739.5 810C1716.7 720 1680.3 630 1676.5 540C1672.7 450 1701.3 360 1713 270C1724.7 180 1719.3 90 1716.7 45L1714 0L1900 0L1900 45C1900 90 1900 180 1900 270C1900 360 1900 450 1900 540C1900 630 1900 720 1900 810C1900 900 1900 990 1900 1035L1900 1080Z" fill="#e63c0d"></path></svg>