<svg id="visual" viewBox="0 0 1900 1080" width="1900" height="1080" xmlns="http://www.w3.org/2000/svg" xmlns:xlink="http://www.w3.org/1999/xlink" version="1.1"><g stroke-width="1" stroke-linejoin="bevel"><path d="M950 432L950 216L712.5 216Z" fill="#f8f8f8" stroke="#efefef"></path><path d="M712.5 216L712.5 432L950 432Z" fill="#f8f8f8" stroke="#efefef"></path><path d="M712.5 432L712.5 648L950 432Z" fill="#ffffff" stroke="#efefef"></path><path d="M712.5 648L950 648L950 432Z" fill="#f8f8f8" stroke="#efefef"></path><path d="M950 216L950 0L712.5 216Z" fill="#f5f5f5" stroke="#efefef"></path><path d="M950 0L712.5 0L712.5 216Z" fill="#f5f5f5" stroke="#efefef"></path><path d="M950 648L1187.5 432L950 432Z" fill="#eeeeee" stroke="#efefef"></path><path d="M950 432L1187.5 432L950 216Z" fill="#f5f5f5" stroke="#efefef"></path><path d="M950 216L1187.5 216L950 0Z" fill="#fcfcfc" stroke="#efefef"></path><path d="M712.5 0L475 216L712.5 216Z" fill="#f1f1f1" stroke="#efefef"></path><path d="M712.5 216L475 216L712.5 432Z" fill="#ffffff" stroke="#efefef"></path><path d="M712.5 432L475 432L712.5 648Z" fill="#ffffff" stroke="#efefef"></path><path d="M1187.5 432L1187.5 216L950 216Z" fill="#eeeeee" stroke="#efefef"></path><path d="M475 216L475 432L712.5 432Z" fill="#f5f5f5" stroke="#efefef"></path><path d="M712.5 0L475 0L475 216Z" fill="#ffffff" stroke="#efefef"></path><path d="M475 432L475 648L712.5 648Z" fill="#ffffff" stroke="#efefef"></path><path d="M1187.5 216L1187.5 0L950 0Z" fill="#ffffff" stroke="#efefef"></path><path d="M950 648L1187.5 648L1187.5 432Z" fill="#ffffff" stroke="#efefef"></path><path d="M712.5 648L950 864L950 648Z" fill="#f5f5f5" stroke="#efefef"></path><path d="M950 648L950 864L1187.5 648Z" fill="#fcfcfc" stroke="#efefef"></path><path d="M712.5 864L950 864L712.5 648Z" fill="#eeeeee" stroke="#efefef"></path><path d="M475 648L712.5 864L712.5 648Z" fill="#f5f5f5" stroke="#efefef"></path><path d="M1187.5 432L1425 216L1187.5 216Z" fill="#ffffff" stroke="#efefef"></path><path d="M1187.5 216L1425 216L1187.5 0Z" fill="#f1f1f1" stroke="#efefef"></path><path d="M1425 432L1425 216L1187.5 432Z" fill="#eeeeee" stroke="#efefef"></path><path d="M475 0L237.5 216L475 216Z" fill="#f5f5f5" stroke="#efefef"></path><path d="M475 216L237.5 216L475 432Z" fill="#ffffff" stroke="#efefef"></path><path d="M475 432L237.5 432L475 648Z" fill="#f5f5f5" stroke="#efefef"></path><path d="M1187.5 648L1425 432L1187.5 432Z" fill="#ffffff" stroke="#efefef"></path><path d="M237.5 216L237.5 432L475 432Z" fill="#f5f5f5" stroke="#efefef"></path><path d="M475 648L475 864L712.5 864Z" fill="#eeeeee" stroke="#efefef"></path><path d="M237.5 648L475 864L475 648Z" fill="#ffffff" stroke="#efefef"></path><path d="M950 864L1187.5 864L1187.5 648Z" fill="#eeeeee" stroke="#efefef"></path><path d="M1187.5 648L1425 648L1425 432Z" fill="#f1f1f1" stroke="#efefef"></path><path d="M475 0L237.5 0L237.5 216Z" fill="#f5f5f5" stroke="#efefef"></path><path d="M1187.5 864L1425 648L1187.5 648Z" fill="#ffffff" stroke="#efefef"></path><path d="M237.5 432L237.5 648L475 648Z" fill="#ffffff" stroke="#efefef"></path><path d="M1425 216L1425 0L1187.5 0Z" fill="#ffffff" stroke="#efefef"></path><path d="M475 864L712.5 1080L712.5 864Z" fill="#eeeeee" stroke="#efefef"></path><path d="M712.5 864L712.5 1080L950 864Z" fill="#ffffff" stroke="#efefef"></path><path d="M950 864L950 1080L1187.5 864Z" fill="#eeeeee" stroke="#efefef"></path><path d="M712.5 1080L950 1080L950 864Z" fill="#ffffff" stroke="#efefef"></path><path d="M237.5 648L237.5 864L475 864Z" fill="#ffffff" stroke="#efefef"></path><path d="M475 864L475 1080L712.5 1080Z" fill="#ffffff" stroke="#efefef"></path><path d="M1187.5 864L1425 864L1425 648Z" fill="#ffffff" stroke="#efefef"></path><path d="M1187.5 1080L1425 864L1187.5 864Z" fill="#f1f1f1" stroke="#efefef"></path><path d="M237.5 864L475 1080L475 864Z" fill="#ffffff" stroke="#efefef"></path><path d="M950 1080L1187.5 1080L1187.5 864Z" fill="#ffffff" stroke="#efefef"></path><path d="M1662.5 648L1662.5 432L1425 648Z" fill="#ffffff" stroke="#efefef"></path><path d="M1425 648L1662.5 432L1425 432Z" fill="#f5f5f5" stroke="#efefef"></path><path d="M1425 432L1662.5 432L1425 216Z" fill="#ffffff" stroke="#efefef"></path><path d="M1425 216L1662.5 216L1425 0Z" fill="#ffffff" stroke="#efefef"></path><path d="M237.5 648L0 648L237.5 864Z" fill="#ffffff" stroke="#efefef"></path><path d="M237.5 432L0 432L237.5 648Z" fill="#ffffff" stroke="#efefef"></path><path d="M237.5 216L0 432L237.5 432Z" fill="#f1f1f1" stroke="#efefef"></path><path d="M0 216L0 432L237.5 216Z" fill="#eeeeee" stroke="#efefef"></path><path d="M1662.5 432L1662.5 216L1425 216Z" fill="#ffffff" stroke="#efefef"></path><path d="M237.5 0L0 216L237.5 216Z" fill="#eeeeee" stroke="#efefef"></path><path d="M0 432L0 648L237.5 648Z" fill="#ffffff" stroke="#efefef"></path><path d="M1425 864L1662.5 648L1425 648Z" fill="#f8f8f8" stroke="#efefef"></path><path d="M1662.5 216L1662.5 0L1425 0Z" fill="#ffffff" stroke="#efefef"></path><path d="M237.5 0L0 0L0 216Z" fill="#f5f5f5" stroke="#efefef"></path><path d="M237.5 864L237.5 1080L475 1080Z" fill="#ffffff" stroke="#efefef"></path><path d="M0 864L237.5 1080L237.5 864Z" fill="#f5f5f5" stroke="#efefef"></path><path d="M1187.5 1080L1425 1080L1425 864Z" fill="#f8f8f8" stroke="#efefef"></path><path d="M1425 864L1662.5 864L1662.5 648Z" fill="#fcfcfc" stroke="#efefef"></path><path d="M0 648L0 864L237.5 864Z" fill="#fcfcfc" stroke="#efefef"></path><path d="M1425 1080L1662.5 864L1425 864Z" fill="#f1f1f1" stroke="#efefef"></path><path d="M1900 648L1900 432L1662.5 648Z" fill="#ffffff" stroke="#efefef"></path><path d="M1662.5 648L1900 432L1662.5 432Z" fill="#ffffff" stroke="#efefef"></path><path d="M1662.5 432L1900 432L1662.5 216Z" fill="#ffffff" stroke="#efefef"></path><path d="M1662.5 216L1900 216L1662.5 0Z" fill="#fcfcfc" stroke="#efefef"></path><path d="M1900 432L1900 216L1662.5 216Z" fill="#fcfcfc" stroke="#efefef"></path><path d="M1662.5 864L1900 648L1662.5 648Z" fill="#ffffff" stroke="#efefef"></path><path d="M1900 216L1900 0L1662.5 0Z" fill="#ffffff" stroke="#efefef"></path><path d="M0 864L0 1080L237.5 1080Z" fill="#fcfcfc" stroke="#efefef"></path><path d="M1425 1080L1662.5 1080L1662.5 864Z" fill="#ffffff" stroke="#efefef"></path><path d="M1662.5 864L1900 864L1900 648Z" fill="#ffffff" stroke="#efefef"></path><path d="M1662.5 1080L1900 864L1662.5 864Z" fill="#ffffff" stroke="#efefef"></path><path d="M1662.5 1080L1900 1080L1900 864Z" fill="#ffffff" stroke="#efefef"></path></g></svg>